<svg width="201" height="201" viewBox="0 0 201 201" fill="none" xmlns="http://www.w3.org/2000/svg">
<path d="M189.098 48.9651H188.903L175.063 25.7229L150.308 29.0432L165.902 52.4807L124.578 58.926L108.79 35.4885L86.1787 39.0042L101.967 62.4417L59.0844 69.2776L44.0754 44.4729L20.2948 49.1604L36.0836 72.7932L17.5659 75.7229H37.8379L25.3628 100.528H50.3129L62.788 75.7229H100.213L87.7381 100.528H112.688L125.163 75.7229H162.588L150.113 100.528H175.063L187.538 75.7229C190.917 75.7229 193.841 76.9273 196.31 79.3362C198.779 81.745 200.014 84.6422 200.014 88.0276V188.028C200.014 191.543 198.779 194.505 196.31 196.914C193.841 199.323 190.917 200.528 187.538 200.528H13.0827C9.57408 200.528 6.61776 199.323 4.21371 196.914C1.80966 194.505 0.607641 191.543 0.607641 188.028V88.0276C0.607641 84.6422 1.80966 81.745 4.21371 79.3362C6.61776 76.9273 9.57408 75.7229 13.0827 75.7229C12.433 75.4625 11.6533 75.1044 10.7436 74.6487C9.83398 74.193 8.50201 73.0536 6.7477 71.2307C4.9934 69.4078 3.92133 67.3896 3.53148 65.176L0.412718 40.9573C0.0228729 37.7021 0.900025 34.7398 3.04417 32.0706C5.18832 29.4013 7.94973 27.8713 11.3284 27.4807L183.25 0.722903C186.629 0.332278 189.65 1.17863 192.314 3.26197C194.978 5.3453 196.505 8.01457 196.895 11.2698L200.014 35.4885C200.403 38.7437 199.526 41.706 197.382 44.3752C195.238 47.0445 192.477 48.5745 189.098 48.9651ZM31.6003 175.528H168.826C170.515 175.528 171.977 174.909 173.212 173.672C174.446 172.435 175.063 170.97 175.063 169.278C175.063 167.585 174.446 166.12 173.212 164.883C171.977 163.646 170.515 163.028 168.826 163.028H31.6003C29.911 163.028 28.4491 163.646 27.2146 164.883C25.9801 166.12 25.3628 167.585 25.3628 169.278C25.3628 170.97 25.9801 172.435 27.2146 173.672C28.4491 174.909 29.911 175.528 31.6003 175.528ZM31.6003 138.028H168.826C170.515 138.028 171.977 137.442 173.212 136.27C174.446 135.098 175.063 133.633 175.063 131.875C175.063 130.117 174.446 128.62 173.212 127.383C171.977 126.146 170.515 125.528 168.826 125.528H31.6003C29.911 125.528 28.4491 126.146 27.2146 127.383C25.9801 128.62 25.3628 130.117 25.3628 131.875C25.3628 133.633 25.9801 135.098 27.2146 136.27C28.4491 137.442 29.911 138.028 31.6003 138.028Z" fill="white"/>
</svg>
