<svg width="1920" height="589" viewBox="0 0 1920 589" fill="none" xmlns="http://www.w3.org/2000/svg">
<path fill-rule="evenodd" clip-rule="evenodd" d="M451.106 328.446C392.994 189.739 265.536 90.5786 115.08 79.8444C79.238 31.3787 21.9818 0 -42.5333 0C-151.098 0 -239.107 88.8566 -239.107 198.467C-239.107 216.351 -236.764 233.684 -232.371 250.168C-280.548 319.449 -309 404.94 -309 497.439C-309 728.604 -131.305 916 87.8923 916C230.986 916 356.393 836.14 426.225 716.377C470.461 781.95 552.564 826 646.539 826C750.284 826 839.56 772.315 879.393 695.253C946.601 722.201 1041.59 739.002 1146.87 739.002C1158.01 739.002 1169.03 738.815 1179.91 738.447C1231.71 761.959 1293.94 775.663 1360.86 775.663C1479.52 775.663 1583.39 732.586 1640.62 668.144C1687.49 701.281 1746.51 721.032 1810.64 721.032C1963.16 721.032 2086.81 609.301 2086.81 471.475C2086.81 456.142 2085.28 441.132 2082.35 426.562C2088.94 427.499 2095.7 427.986 2102.58 427.986C2172.4 427.986 2229 377.962 2229 316.255C2229 254.547 2172.4 204.523 2102.58 204.523C2048.29 204.523 2001.98 234.781 1984.08 277.262C1936.67 242.647 1876.34 221.918 1810.64 221.918C1696.08 221.918 1597.8 284.956 1555.99 374.742C1501.54 347.088 1434.01 330.717 1360.86 330.717C1228.35 330.717 1114.27 384.44 1063.02 461.646C988.73 468.224 923.052 483.351 873.523 504.159C831.231 432.812 745.463 384 646.539 384C632.697 384 619.113 384.956 605.869 386.795C585.346 349.165 541.28 323.145 490.229 323.145C476.584 323.145 463.438 325.004 451.106 328.446Z" fill="#DBFCFA"/>
</svg>
