<svg width="1569" height="516" viewBox="0 0 1569 516" fill="none" xmlns="http://www.w3.org/2000/svg">
<path fill-rule="evenodd" clip-rule="evenodd" d="M0 -15.3496C0 76.997 93.5074 152.604 211.908 158.879C266.355 257.194 431.665 328.681 627.145 328.681C664.782 328.681 701.302 326.031 736.126 321.049C774.622 378.675 851.696 418 940.5 418C963.293 418 985.314 415.409 1006.11 410.583C1097.41 475.263 1230.42 516 1378.5 516C1653.81 516 1877 375.194 1877 201.5C1877 27.8064 1653.81 -113 1378.5 -113C1236.94 -113 1109.16 -75.7739 1018.42 -15.9919C948.231 -96.4539 799.401 -151.965 627.145 -151.965C548.195 -151.965 474.166 -140.304 410.375 -119.924C368.817 -162.468 302.533 -190 227.86 -190C102.016 -190 0 -111.806 0 -15.3496Z" fill="url(#paint0_linear_128_486)"/>
<defs>
<linearGradient id="paint0_linear_128_486" x1="653.423" y1="-31.0893" x2="1174.59" y2="602.181" gradientUnits="userSpaceOnUse">
<stop stop-color="#DBBFFF"/>
<stop offset="1" stop-color="#9170BC"/>
</linearGradient>
</defs>
</svg>
